PathFileType	3	(X/Y/Z)	E:\ViconData\BIOM9541 2025\Week 7\Wed1100\Hanif 90 squat 7-5 Squat 01.trc
DataRate	CameraRate	NumFrames	NumMarkers	Units	OrigDataRate	OrigDataStartFrame	OrigNumFrames
200.0	200.0	15	19	mm	200.0	1039	1661	
Frame#	Time	C7			CLAV			RBAK			LASI			RASI			LPSI			RPSI			LTHI			LKNE			LTIB			LANK			LHEE			LTOE			RTHI			RKNE			RTIB			RANK			RHEE			RTOE			
		X1	Y1	Z1	X2	Y2	Z2	X3	Y3	Z3	X4	Y4	Z4	X5	Y5	Z5	X6	Y6	Z6	X7	Y7	Z7	X8	Y8	Z8	X9	Y9	Z9	X10	Y10	Z10	X11	Y11	Z11	X12	Y12	Z12	X13	Y13	Z13	X14	Y14	Z14	X15	Y15	Z15	X16	Y16	Z16	X17	Y17	Z17	X18	Y18	Z18	X19	Y19	Z19	
1039	5.19	329.2424	1317.881	-1222.0325	180.57889	1249.4646	-1207.4447	339.68979	1232.5646	-1370.2614	203.60094	881.53455	-1079.1355	194.97318	889.83167	-1342.6366	369.29446	944.39832	-1170.6832	371.10651	943.54529	-1248.4115	255.87785	563.97913	-992.77057	261.24814	423.63647	-993.99976	294.93454	222.24178	-965.25647	309.38519	63.333191	-974.17712	328.37009	48.745701	-1033.7192	162.75719	38.61343	-945.12671	256.18518	735.86115	-1410.7234	279.42752	423.66507	-1418.8811	294.47748	336.34622	-1439.96	306.56897	74.077744	-1430.4407	323.67688	49.400406	-1365.6071	163.2326	40.650326	-1466.8157
1040	5.195	329.33701	1317.8429	-1222.0107	180.72681	1249.5752	-1207.7122	339.80807	1232.5291	-1370.272	203.45898	881.55945	-1079.2151	194.79869	889.84509	-1342.6647	369.24506	944.2677	-1171.103	368.09268	940.99554	-1245.293	255.64435	564.01007	-992.80975	261.13376	423.67609	-994.0437	294.85257	222.30133	-965.26068	309.37256	63.345833	-974.22449	328.38083	48.69413	-1033.7258	162.75291	38.629608	-945.16174	255.89236	735.81244	-1410.8036	279.16431	423.60394	-1418.9836	294.27301	336.27383	-1440.01	306.56281	73.984497	-1430.4604	323.70172	49.429451	-1365.718	163.21352	40.573879	-1466.8162
1041	5.2	329.44769	1317.8279	-1221.9926	180.8354	1249.6211	-1207.8295	339.83768	1232.5026	-1370.2496	203.31221	881.58264	-1079.2488	194.60674	889.84143	-1342.6656	369.15121	944.0993	-1171.2943	370.85266	943.198	-1248.552	255.40962	564.04553	-992.83405	261.02197	423.72778	-994.06384	294.80118	222.36685	-965.2746	309.41571	63.398918	-974.2431	328.1312	48.434685	-1033.4752	162.8008	38.655472	-945.26398	255.6057	735.77063	-1410.8899	278.94147	423.49225	-1419.0645	294.05423	336.21808	-1440.0703	306.50677	73.96122	-1430.4856	323.67929	49.389786	-1365.748	163.21307	40.501984	-1466.8154
1042	5.205	329.54929	1317.7955	-1221.9727	180.95398	1249.7001	-1207.947	339.87552	1232.4601	-1370.2313	203.17216	881.53925	-1079.2998	194.39973	889.89801	-1342.6881	369.0383	944.00287	-1171.3459	370.75507	943.17242	-1248.6766	255.24493	563.98608	-992.91058	260.94379	423.71539	-994.11584	294.73621	222.33955	-965.29803	309.39401	63.404842	-974.28351	328.11035	48.449989	-1033.4685	162.76642	38.689743	-945.27148	255.30843	735.7998	-1410.9927	278.71368	423.45285	-1419.1371	293.84348	336.23193	-1440.1221	306.45602	73.951393	-1430.4821	323.68631	49.419098	-1365.7916	163.17975	40.503258	-1466.8022
1043	5.21	329.66647	1317.755	-1221.963	181.06302	1249.7177	-1208.0109	339.95987	1232.433	-1370.2234	203.04477	881.49261	-1079.3651	194.18124	890.0144	-1342.746	368.89786	943.91205	-1171.2665	370.68057	943.13989	-1248.7954	255.09804	563.88751	-992.97101	260.85672	423.65897	-994.18799	294.7131	222.31508	-965.31586	309.39505	63.420288	-974.25159	328.11676	48.517521	-1033.4646	162.77684	38.643814	-945.21179	255.05901	735.81659	-1411.0884	278.47717	423.51456	-1419.2039	293.66443	336.27023	-1440.1576	306.43317	74.00769	-1430.4817	323.65219	49.437084	-1365.7156	163.16743	40.548214	-1466.7952
1044	5.215	329.73828	1317.6993	-1221.9309	181.18375	1249.7341	-1208.0815	340.03113	1232.3705	-1370.2045	202.91551	881.43048	-1079.4062	193.99991	890.09088	-1342.7716	368.77585	943.84833	-1171.1124	370.63736	943.1864	-1248.9541	254.99057	563.81958	-993.05273	260.73657	423.58878	-994.23016	294.68784	222.25713	-965.35016	309.34686	63.401825	-974.22772	328.33731	48.769096	-1033.7515	162.81044	38.616127	-945.20074	254.81877	735.85583	-1411.1791	278.30734	423.53937	-1419.2745	293.5365	336.28448	-1440.1721	306.40997	74.053368	-1430.4763	323.60278	49.423111	-1365.6278	163.18782	40.558559	-1466.7771
1045	5.22	329.84857	1317.6678	-1221.9247	181.24733	1249.7556	-1208.1426	340.12262	1232.3231	-1370.188	202.78529	881.41644	-1079.4601	193.84875	890.03003	-1342.7874	368.68112	943.76178	-1171.231	370.5191	943.17383	-1249.0831	254.90663	563.76904	-993.16278	260.65225	423.53912	-994.30286	294.63129	222.24045	-965.3772	309.33685	63.382095	-974.23376	328.38104	48.73708	-1033.7589	162.8064	38.604519	-945.19287	254.38303	735.7384	-1411.4087	278.18256	423.51254	-1419.3191	293.41858	336.25772	-1440.1943	306.40948	74.026268	-1430.443	323.61334	49.388023	-1365.6384	163.1913	40.536469	-1466.7856
1046	5.225	329.93582	1317.6481	-1221.9091	181.35312	1249.7836	-1208.2057	340.1962	1232.2799	-1370.1521	202.65898	881.41016	-1079.5221	193.68697	890.02057	-1342.8094	368.62186	943.63647	-1171.5173	370.42084	942.91541	-1249.0428	254.8399	563.80896	-993.23206	260.52026	423.51318	-994.35754	294.56647	222.24513	-965.42609	309.33807	63.390621	-974.2774	328.40845	48.658127	-1033.7828	162.78351	38.593575	-945.15808	254.19417	735.67163	-1411.4955	278.0654	423.42984	-1419.3502	293.36368	336.16653	-1440.2135	306.4252	73.933739	-1430.4216	323.63797	49.339508	-1365.686	163.21553	40.479122	-1466.7893
1047	5.23	329.99622	1317.6072	-1221.9067	181.40352	1249.8665	-1208.3203	340.26248	1232.2714	-1370.1451	202.55846	881.39734	-1079.6128	193.53326	890.04095	-1342.8689	368.55579	943.54706	-1171.6935	370.32913	942.89215	-1249.194	254.82159	563.77844	-993.33362	260.40552	423.49176	-994.40491	294.51871	222.2654	-965.46722	309.33466	63.380943	-974.30817	328.41678	48.601799	-1033.7875	162.77222	38.63559	-945.1767	253.99812	735.67426	-1411.5896	277.97424	423.38101	-1419.4003	293.30499	336.13315	-1440.2347	306.41971	73.910271	-1430.4147	323.62183	49.228973	-1365.6805	163.22643	40.462666	-1466.7955
1048	5.235	330.06372	1317.6011	-1221.9243	181.43927	1249.89	-1208.3113	340.33463	1232.2986	-1370.1395	202.45261	881.39966	-1079.6639	193.38643	890.07739	-1342.9246	368.42908	943.49097	-1171.6039	370.20721	942.96729	-1249.2799	254.78375	563.71136	-993.42914	260.27319	423.41479	-994.44806	294.44843	222.22652	-965.51599	309.3212	63.387386	-974.32288	328.38916	48.63649	-1033.828	162.78769	38.635254	-945.17523	254.02031	735.78705	-1411.5018	277.83258	423.41623	-1419.459	293.23126	336.1427	-1440.2468	306.40967	73.939278	-1430.3861	323.61157	49.221729	-1365.6495	163.2177	40.5005	-1466.7893
1049	5.24	330.10617	1317.6029	-1221.8925	181.4913	1249.9448	-1208.3801	340.36176	1232.3179	-1370.1299	202.35718	881.36487	-1079.7324	193.21469	890.17548	-1342.9882	368.34018	943.45398	-1171.6521	370.1326	942.96759	-1249.3739	254.74123	563.62524	-993.51978	260.15173	423.36746	-994.52881	294.36264	222.15126	-965.58929	309.26968	63.426071	-974.30249	328.3624	48.632328	-1033.8516	162.81017	38.658756	-945.24127	253.86069	735.80145	-1411.566	277.73822	423.40582	-1419.5116	293.16904	336.13373	-1440.2765	306.41162	73.945312	-1430.3776	323.61252	49.209438	-1365.6057	163.21504	40.550568	-1466.8079
1050	5.245	330.15558	1317.6008	-1221.9058	181.53134	1249.95	-1208.4155	340.4003	1232.3274	-1370.1382	202.29012	881.4093	-1079.7845	193.09251	890.18658	-1343.0359	368.26251	943.37213	-1171.7047	370.09045	942.8158	-1249.5116	254.69887	563.58856	-993.5827	259.99072	423.34396	-994.55469	294.25113	222.17281	-965.62219	309.26822	63.413731	-974.3587	328.34668	48.61237	-1033.9039	162.82213	38.683067	-945.23682	253.73221	735.79901	-1411.5985	277.63492	423.37164	-1419.5895	293.12039	336.08548	-1440.3196	306.4032	73.92482	-1430.3954	323.60504	49.185997	-1365.6029	163.23195	40.538868	-1466.8224
1051	5.25	330.19986	1317.5853	-1221.9309	181.58226	1249.9541	-1208.4056	340.44916	1232.3137	-1370.1514	202.22415	881.44946	-1079.8068	192.99315	890.14172	-1343.0667	368.20312	943.31488	-1171.9677	367.05515	940.25299	-1246.4011	254.62029	563.61816	-993.62476	259.82736	423.33194	-994.55695	294.13107	222.166	-965.63531	309.29791	63.416561	-974.4054	328.35013	48.556335	-1033.9357	162.85568	38.671604	-945.25708	253.59377	735.71686	-1411.632	277.53851	423.30865	-1419.6705	293.06467	336.00943	-1440.3591	306.42532	73.881371	-1430.3903	323.64792	49.175926	-1365.6562	163.25285	40.502075	-1466.8337
1052	5.255	330.24762	1317.5483	-1221.9476	181.59975	1249.9563	-1208.442	340.46078	1232.3009	-1370.1713	202.17404	881.47723	-1079.8757	192.88074	890.11005	-1343.0852	368.14478	943.2879	-1172.0896	367.02426	940.22858	-1246.5157	254.52467	563.60358	-993.64496	259.66965	423.34637	-994.58374	294.02365	222.18889	-965.62848	309.27469	63.409233	-974.39435	328.36313	48.506657	-1033.957	162.87093	38.683678	-945.302	253.46277	735.65625	-1411.6658	277.43146	423.24872	-1419.7258	292.98807	335.95706	-1440.3928	306.40042	73.841278	-1430.4078	323.64322	49.141022	-1365.6841	163.26057	40.471375	-1466.8297
1053	5.26	330.26627	1317.5176	-1221.9886	181.5835	1249.9528	-1208.4802	340.46387	1232.2897	-1370.1917	202.15306	881.44434	-1079.9226	192.77147	890.04553	-1343.0747	368.0903	943.25104	-1172.2227	366.90848	940.21124	-1246.5747	254.47226	563.60699	-993.72192	259.50104	423.3287	-994.59082	293.94562	222.17931	-965.6593	309.27045	63.448765	-974.41956	328.3006	48.497032	-1033.9778	162.88147	38.69841	-945.3244	253.35324	735.60101	-1411.6997	277.29663	423.25244	-1419.7839	292.89722	335.90753	-1440.4373	306.35114	73.825554	-1430.4105	323.63193	49.17503	-1365.6694	163.239	40.497948	-1466.8605
